<?xml version="1.0" encoding="utf-8"?>
<!-- Generator: Adobe Illustrator 16.0.0, SVG Export Plug-In . SVG Version: 6.00 Build 0)  -->
<!DOCTYPE svg PUBLIC "-//W3C//DTD SVG 1.1//EN" "http://www.w3.org/Graphics/SVG/1.1/DTD/svg11.dtd">
<svg version="1.1" id="Layer_1" xmlns="http://www.w3.org/2000/svg" xmlns:xlink="http://www.w3.org/1999/xlink" x="0px" y="0px"
	 width="37px" height="36px" viewBox="0 0 37 36" enable-background="new 0 0 37 36" xml:space="preserve">
<path fill="#0DF4FF" d="M37,20.098C37,28.88,29.88,36,21.098,36h-5.195C7.12,36,0,28.88,0,20.098v-4.195C0,7.12,7.12,0,15.902,0
	h5.195C29.88,0,37,7.12,37,15.902V20.098z"/>
<path fill-rule="evenodd" clip-rule="evenodd" fill="#FFFFFF" d="M18.168,28.502c-0.568-0.237-0.899-0.706-1.133-1.237
	c-0.206-0.468-0.359-0.96-0.519-1.447c-0.042-0.128-0.087-0.204-0.22-0.255c-0.55-0.21-1.093-0.436-1.663-0.665
	c-0.615,0.43-1.3,0.831-2.111,0.953c-0.485,0.073-0.913-0.041-1.254-0.414c-0.083-0.091-0.168-0.181-0.258-0.264
	c-0.327-0.301-0.399-0.678-0.331-1.095c0.114-0.702,0.436-1.324,0.801-1.92c0.156-0.256,0.174-0.452,0.022-0.724
	c-0.199-0.359-0.335-0.756-0.483-1.142c-0.058-0.149-0.136-0.229-0.296-0.272c-0.691-0.184-1.339-0.464-1.966-0.818
	c-0.991-0.562-0.947-2.197,0.074-2.711c0.562-0.281,1.138-0.494,1.749-0.617c0.173-0.035,0.266-0.105,0.331-0.282
	c0.177-0.481,0.38-0.953,0.587-1.423c0.053-0.119,0.051-0.202-0.019-0.312c-0.398-0.631-0.752-1.285-0.891-2.029
	c-0.099-0.527-0.016-0.98,0.47-1.317c0.364-0.252,0.675-0.619,1.168-0.557c0.338,0.043,0.686,0.116,0.994,0.255
	c0.438,0.196,0.85,0.456,1.262,0.707c0.138,0.083,0.229,0.074,0.372,0.012c0.477-0.21,0.962-0.396,1.448-0.584
	c0.116-0.045,0.182-0.097,0.216-0.23c0.18-0.709,0.464-1.369,0.862-1.992c0.545-0.852,2.136-0.83,2.638,0.062
	c0.341,0.605,0.557,1.241,0.684,1.915c0.023,0.129,0.073,0.194,0.199,0.243c0.521,0.202,1.033,0.425,1.554,0.625
	c0.073,0.028,0.187-0.007,0.267-0.044c0.564-0.254,1.121-0.527,1.689-0.771c0.179-0.076,0.388-0.097,0.585-0.11
	c0.339-0.024,0.638,0.067,0.848,0.362c0.089,0.125,0.18,0.251,0.286,0.36c0.411,0.422,0.455,0.92,0.312,1.455
	c-0.165,0.619-0.483,1.158-0.895,1.644c-0.095,0.112-0.095,0.188-0.037,0.32c0.209,0.476,0.399,0.96,0.588,1.445
	c0.048,0.122,0.095,0.192,0.246,0.217c0.601,0.097,1.178,0.272,1.714,0.571c0.592,0.331,0.891,0.793,0.901,1.506
	c0.01,0.74-0.308,1.225-0.897,1.59c-0.501,0.31-1.046,0.506-1.614,0.651c-0.085,0.021-0.186,0.103-0.22,0.181
	c-0.227,0.52-0.442,1.043-0.646,1.571c-0.027,0.071,0.011,0.185,0.051,0.263c0.26,0.502,0.552,0.989,0.783,1.504
	c0.106,0.235,0.113,0.521,0.134,0.785c0.01,0.131-0.032,0.275-0.082,0.401c-0.331,0.839-1.144,1.251-2.008,1.028
	c-0.639-0.165-1.216-0.461-1.774-0.804c-0.074-0.046-0.202-0.063-0.282-0.033c-0.528,0.202-1.052,0.416-1.573,0.638
	c-0.057,0.023-0.1,0.114-0.121,0.183c-0.162,0.525-0.287,1.064-0.484,1.576c-0.193,0.502-0.551,0.881-1.09,1.047
	C18.813,28.502,18.491,28.502,18.168,28.502z M24.457,18.181c0.008-3.248-2.588-5.853-5.845-5.863
	c-3.19-0.012-5.854,2.638-5.871,5.841c-0.018,3.163,2.655,5.856,5.826,5.87C21.771,24.042,24.449,21.384,24.457,18.181z"/>
<path fill-rule="evenodd" clip-rule="evenodd" fill="#FFFFFF" d="M18.495,21.939c-2.171,0.004-3.93-1.743-3.935-3.909
	c-0.006-2.197,1.751-3.972,3.929-3.969c2.192,0.003,3.951,1.763,3.95,3.951C22.439,20.135,20.632,21.935,18.495,21.939z
	 M20.416,17.837c0.019-0.961-0.854-1.832-1.856-1.853c-1.078-0.022-1.952,0.798-1.973,1.854c-0.021,1.069,0.795,1.948,1.831,1.973
	C19.56,19.837,20.394,19.014,20.416,17.837z"/>
</svg>
