<?xml version="1.0" encoding="utf-8"?>
<!-- Generator: Adobe Illustrator 16.0.0, SVG Export Plug-In . SVG Version: 6.00 Build 0)  -->
<!DOCTYPE svg PUBLIC "-//W3C//DTD SVG 1.1//EN" "http://www.w3.org/Graphics/SVG/1.1/DTD/svg11.dtd">
<svg version="1.1" id="Layer_1" xmlns="http://www.w3.org/2000/svg" xmlns:xlink="http://www.w3.org/1999/xlink" x="0px" y="0px"
	 width="37px" height="36px" viewBox="0 0 37 36" enable-background="new 0 0 37 36" xml:space="preserve">
<g>
	<path fill="#25FF46" d="M37,20.098C37,28.881,29.88,36,21.098,36h-5.195C7.12,36,0,28.881,0,20.098v-4.195C0,7.119,7.12,0,15.902,0
		h5.195C29.88,0,37,7.119,37,15.902V20.098z"/>
	<circle fill-rule="evenodd" clip-rule="evenodd" fill="#25FF46" cx="22.868" cy="20.375" r="8.833"/>
</g>
<g>
	<path fill-rule="evenodd" clip-rule="evenodd" fill="#FFFFFF" d="M14.144,25.862c-0.569-0.236-0.899-0.705-1.134-1.236
		c-0.206-0.469-0.358-0.961-0.519-1.447c-0.042-0.129-0.087-0.205-0.22-0.256c-0.549-0.209-1.093-0.436-1.663-0.664
		c-0.615,0.43-1.3,0.83-2.11,0.953c-0.486,0.072-0.914-0.041-1.255-0.414c-0.083-0.092-0.167-0.182-0.258-0.264
		c-0.327-0.301-0.399-0.678-0.331-1.096c0.115-0.701,0.436-1.324,0.801-1.92c0.157-0.256,0.174-0.451,0.022-0.723
		c-0.199-0.359-0.334-0.756-0.482-1.143c-0.058-0.148-0.137-0.229-0.297-0.271c-0.691-0.184-1.339-0.465-1.966-0.818
		C3.741,16,3.785,14.366,4.808,13.852c0.561-0.281,1.137-0.494,1.748-0.617c0.173-0.035,0.266-0.105,0.331-0.283
		c0.177-0.48,0.381-0.953,0.587-1.422c0.053-0.119,0.051-0.203-0.019-0.312c-0.397-0.631-0.751-1.285-0.891-2.029
		C6.467,8.661,6.55,8.208,7.034,7.87C7.398,7.618,7.709,7.25,8.202,7.313C8.54,7.356,8.888,7.43,9.196,7.569
		c0.438,0.195,0.851,0.455,1.263,0.707c0.137,0.082,0.229,0.074,0.372,0.012c0.476-0.211,0.962-0.396,1.447-0.584
		c0.116-0.045,0.182-0.098,0.216-0.23c0.18-0.709,0.465-1.369,0.863-1.992c0.544-0.852,2.135-0.83,2.637,0.061
		c0.341,0.605,0.558,1.242,0.684,1.916c0.023,0.129,0.073,0.193,0.199,0.242c0.521,0.203,1.033,0.426,1.555,0.625
		c0.073,0.029,0.186-0.006,0.267-0.043c0.564-0.254,1.12-0.527,1.689-0.771c0.179-0.076,0.388-0.096,0.585-0.109
		c0.338-0.025,0.638,0.066,0.847,0.361C21.908,7.887,22,8.014,22.106,8.124c0.41,0.422,0.455,0.92,0.312,1.455
		c-0.165,0.619-0.483,1.158-0.895,1.643c-0.095,0.113-0.096,0.188-0.037,0.32c0.208,0.477,0.398,0.961,0.588,1.445
		c0.048,0.123,0.094,0.193,0.245,0.217c0.601,0.098,1.178,0.273,1.714,0.572c0.592,0.33,0.892,0.793,0.901,1.506
		c0.011,0.74-0.307,1.225-0.897,1.59c-0.501,0.309-1.046,0.506-1.614,0.65c-0.084,0.021-0.185,0.104-0.22,0.182
		c-0.227,0.52-0.442,1.043-0.646,1.57c-0.028,0.072,0.011,0.186,0.05,0.264c0.261,0.502,0.553,0.988,0.784,1.504
		c0.105,0.234,0.112,0.52,0.133,0.785c0.011,0.131-0.031,0.275-0.081,0.4c-0.332,0.84-1.145,1.252-2.009,1.029
		c-0.639-0.166-1.216-0.461-1.773-0.805c-0.075-0.045-0.202-0.062-0.282-0.033c-0.528,0.203-1.053,0.416-1.573,0.639
		c-0.057,0.023-0.101,0.113-0.122,0.182c-0.162,0.525-0.286,1.064-0.483,1.576c-0.194,0.502-0.552,0.881-1.09,1.047
		C14.789,25.862,14.466,25.862,14.144,25.862z M20.432,15.542c0.009-3.248-2.588-5.854-5.844-5.863
		c-3.191-0.012-5.854,2.637-5.872,5.84c-0.018,3.164,2.655,5.857,5.826,5.871C17.747,21.403,20.424,18.745,20.432,15.542z"/>
	<path fill-rule="evenodd" clip-rule="evenodd" fill="#FFFFFF" d="M14.573,19.465c-2.171,0.004-3.929-1.744-3.935-3.91
		c-0.006-2.197,1.751-3.971,3.93-3.969c2.191,0.004,3.951,1.764,3.95,3.951C18.518,17.661,16.71,19.461,14.573,19.465z
		 M16.494,15.364c0.02-0.961-0.853-1.832-1.855-1.854c-1.079-0.021-1.953,0.799-1.974,1.854c-0.021,1.07,0.796,1.949,1.832,1.973
		C15.639,17.364,16.472,16.54,16.494,15.364z"/>
	<path fill-rule="evenodd" clip-rule="evenodd" fill="#FFFFFF" d="M28.557,25.067c1.326,1.289,2.652,2.572,3.968,3.861
		c0.612,0.604,0.609,0.887,0.031,1.527c-0.096,0.107-0.188,0.215-0.283,0.322c-0.417,0.471-0.85,0.49-1.301,0.033
		c-1.294-1.316-2.58-2.637-3.871-3.957c-0.055-0.055-0.114-0.107-0.198-0.186c-1.742,1.07-3.595,1.359-5.554,0.703
		c-1.46-0.49-2.58-1.414-3.38-2.723c-1.58-2.584-1.049-6.062,1.215-8.029c2.385-2.072,5.814-2.141,8.224-0.156
		C29.786,18.42,30.543,21.973,28.557,25.067z M23.368,16.458c-2.702-0.006-4.868,2.156-4.876,4.867
		c-0.007,2.721,2.132,4.887,4.839,4.902c2.701,0.016,4.896-2.148,4.906-4.84C28.248,18.649,26.09,16.465,23.368,16.458z"/>
</g>
</svg>
