<?xml version="1.0" encoding="utf-8"?>
<!-- Generator: Adobe Illustrator 16.0.0, SVG Export Plug-In . SVG Version: 6.00 Build 0)  -->
<!DOCTYPE svg PUBLIC "-//W3C//DTD SVG 1.1//EN" "http://www.w3.org/Graphics/SVG/1.1/DTD/svg11.dtd">
<svg version="1.1" id="Layer_1" xmlns="http://www.w3.org/2000/svg" xmlns:xlink="http://www.w3.org/1999/xlink" x="0px" y="0px"
	 width="37px" height="36px" viewBox="0 0 37 36" enable-background="new 0 0 37 36" xml:space="preserve">
<path fill="#136E6C" d="M37,20.098C37,28.881,29.88,36,21.098,36h-5.195C7.12,36,0,28.881,0,20.098v-4.195C0,7.119,7.12,0,15.902,0
	h5.195C29.88,0,37,7.119,37,15.902V20.098z"/>
<g>
	<path fill-rule="evenodd" clip-rule="evenodd" fill="#FFFFFF" d="M18.826,22.426c4.416,0.791,7.59-2.291,7.903-5.783
		c0.337-3.736-2.628-7.004-6.395-7.053c-3.479-0.043-7.128,2.916-6.481,7.791c-0.329,0-0.652,0-1.048,0
		c-0.301-1.01-0.192-2.037,0.046-3.049c0.863-3.668,4.411-6.242,8.024-5.848c3.974,0.434,6.923,3.52,7.012,7.336
		c0.09,3.902-2.667,7.225-6.495,7.799c-0.513,0.076-1.042,0.068-1.562,0.055C18.703,23.645,18.703,23.633,18.826,22.426z"/>
	<path fill-rule="evenodd" clip-rule="evenodd" fill="#FFFFFF" d="M18.309,17.735c-1.206,3.037-2.337,5.885-3.511,8.84
		c-0.681-0.611-1.302-1.17-1.96-1.762c-0.848,0.906-1.687,1.803-2.564,2.742c-0.385-0.354-0.745-0.684-1.163-1.068
		c0.86-0.932,1.69-1.83,2.561-2.773c-0.633-0.594-1.247-1.17-1.927-1.809C12.583,20.522,15.342,19.18,18.309,17.735z M11.731,22.204
		c0.902,0.838,1.721,1.6,2.611,2.428c0.615-1.555,1.184-2.99,1.813-4.58C14.604,20.807,13.226,21.477,11.731,22.204z"/>
	<path fill-rule="evenodd" clip-rule="evenodd" fill="#FFFFFF" d="M16.393,16.827c-0.768,0.232-0.695-0.303-0.702-0.703
		c-0.038-2.191,1.597-4.164,3.753-4.549c2.237-0.398,4.452,0.916,5.164,3.068c1.007,3.043-1.399,6.195-4.588,6.014
		c-0.412-0.023-0.794-0.061-0.599-0.723c1.548,0.174,2.938-0.199,3.94-1.512c0.616-0.807,0.896-1.73,0.776-2.736
		c-0.257-2.162-2.08-3.648-4.204-3.467C17.673,12.413,16.281,14.202,16.393,16.827z"/>
</g>
</svg>
