<?xml version="1.0" standalone="no"?>
<!DOCTYPE svg PUBLIC "-//W3C//DTD SVG 20010904//EN"
 "http://www.w3.org/TR/2001/REC-SVG-20010904/DTD/svg10.dtd">
<svg version="1.0" xmlns="http://www.w3.org/2000/svg"
 width="270.000000pt" height="271.000000pt" viewBox="0 0 270.000000 271.000000"
 preserveAspectRatio="xMidYMid meet">
<metadata>
Created by potrace 1.15, written by Peter Selinger 2001-2017
</metadata>
<g transform="translate(0.000000,271.000000) scale(0.100000,-0.100000)"
fill="#034B5E" stroke="none">
<path d="M1210 2694 c-74 -9 -196 -36 -273 -60 -327 -104 -615 -346 -776 -653
-104 -199 -151 -396 -151 -631 0 -159 18 -276 65 -416 155 -466 538 -804 1023
-901 120 -24 384 -24 504 0 462 93 834 406 1008 847 12 30 32 100 46 155 108
451 -17 919 -335 1248 -194 201 -426 330 -696 388 -88 19 -336 33 -415 23z
m255 -428 c71 -55 75 -73 75 -406 l0 -295 144 -144 145 -145 50 47 c40 38 57
47 86 47 34 0 75 -27 75 -49 0 -6 22 -125 50 -267 73 -380 85 -369 -301 -294
-145 29 -272 56 -281 61 -19 10 -34 52 -29 84 1 11 24 41 49 68 l47 47 -113
113 -112 112 -112 -112 -113 -113 50 -50 c40 -40 49 -56 49 -84 0 -65 -10 -69
-305 -126 -393 -76 -381 -88 -308 295 32 167 57 269 68 285 12 17 29 26 54 28
32 3 43 -3 90 -47 l53 -50 152 152 152 152 0 290 c0 260 2 294 19 330 34 74
90 108 173 102 43 -2 65 -10 93 -31z"/>
</g>
</svg>
