<?xml version="1.0" encoding="utf-8"?>
<!-- Generator: Adobe Illustrator 16.0.0, SVG Export Plug-In . SVG Version: 6.00 Build 0)  -->
<!DOCTYPE svg PUBLIC "-//W3C//DTD SVG 1.1//EN" "http://www.w3.org/Graphics/SVG/1.1/DTD/svg11.dtd">
<svg version="1.1" id="Layer_1" xmlns="http://www.w3.org/2000/svg" xmlns:xlink="http://www.w3.org/1999/xlink" x="0px" y="0px"
	 width="37px" height="36px" viewBox="0 0 37 36" enable-background="new 0 0 37 36" xml:space="preserve">
<path fill="#FC006C" d="M37,20.098C37,28.881,29.88,36,21.098,36h-5.195C7.12,36,0,28.881,0,20.098v-4.195C0,7.119,7.12,0,15.902,0
	h5.195C29.88,0,37,7.119,37,15.902V20.098z"/>
<g>
	<path fill-rule="evenodd" clip-rule="evenodd" fill="#FFFFFF" d="M10,22.5c0,1.381-1.119,2.5-2.5,2.5l0,0C6.119,25,5,23.881,5,22.5
		v-15C5,6.119,6.119,5,7.5,5l0,0C8.881,5,10,6.119,10,7.5V22.5z"/>
	<path fill-rule="evenodd" clip-rule="evenodd" fill="#FFFFFF" d="M18,22.5c0,1.381-1.119,2.5-2.5,2.5l0,0
		c-1.381,0-2.5-1.119-2.5-2.5v-9c0-1.381,1.119-2.5,2.5-2.5l0,0c1.381,0,2.5,1.119,2.5,2.5V22.5z"/>
	<path fill-rule="evenodd" clip-rule="evenodd" fill="#FFFFFF" d="M25,22.5c0,1.381-1.119,2.5-2.5,2.5l0,0
		c-1.381,0-2.5-1.119-2.5-2.5v-7c0-1.381,1.119-2.5,2.5-2.5l0,0c1.381,0,2.5,1.119,2.5,2.5V22.5z"/>
	<circle fill-rule="evenodd" clip-rule="evenodd" fill="#FC006C" cx="22.41" cy="21.319" r="7.542"/>
	<path fill-rule="evenodd" clip-rule="evenodd" fill="#FFFFFF" d="M27.532,25.003c1.326,1.289,2.652,2.572,3.968,3.862
		c0.612,0.603,0.609,0.886,0.031,1.527c-0.096,0.106-0.188,0.215-0.283,0.322c-0.417,0.471-0.85,0.49-1.301,0.033
		c-1.294-1.316-2.58-2.637-3.871-3.957c-0.055-0.056-0.114-0.107-0.198-0.186c-1.742,1.069-3.595,1.359-5.554,0.703
		c-1.46-0.49-2.58-1.415-3.38-2.724c-1.58-2.583-1.049-6.062,1.215-8.028c2.385-2.072,5.814-2.141,8.224-0.156
		C28.761,18.357,29.518,21.909,27.532,25.003z M22.343,16.395c-2.702-0.006-4.868,2.156-4.876,4.866
		c-0.007,2.722,2.132,4.888,4.839,4.903c2.701,0.016,4.896-2.148,4.906-4.84C27.223,18.585,25.065,16.401,22.343,16.395z"/>
</g>
</svg>
