<?xml version="1.0" encoding="utf-8"?>
<!-- Generator: Adobe Illustrator 16.0.0, SVG Export Plug-In . SVG Version: 6.00 Build 0)  -->
<!DOCTYPE svg PUBLIC "-//W3C//DTD SVG 1.1//EN" "http://www.w3.org/Graphics/SVG/1.1/DTD/svg11.dtd">
<svg version="1.1" id="Layer_1" xmlns="http://www.w3.org/2000/svg" xmlns:xlink="http://www.w3.org/1999/xlink" x="0px" y="0px"
	 width="37px" height="36px" viewBox="0 0 37 36" enable-background="new 0 0 37 36" xml:space="preserve">
<path fill="#89006C" d="M37,20.098C37,28.881,29.88,36,21.098,36h-5.195C7.12,36,0,28.881,0,20.098v-4.195C0,7.119,7.12,0,15.902,0
	h5.195C29.88,0,37,7.119,37,15.902V20.098z"/>
<path fill-rule="evenodd" clip-rule="evenodd" fill="#FFFFFF" d="M27.275,9.326c-2.534,5.809-5.069,11.617-7.603,17.427
	c-0.027-0.002-0.053-0.003-0.08-0.005c-0.113-3.074-0.226-6.148-0.341-9.264c-3.186-0.137-6.348-0.272-9.509-0.408
	c-0.006-0.021-0.012-0.043-0.019-0.064c5.831-2.588,11.662-5.176,17.492-7.764C27.236,9.273,27.256,9.3,27.275,9.326z"/>
</svg>
