<svg id="_x33_0" enable-background="new 0 0 64 64" height="512" viewBox="0 0 64 64" width="512" xmlns="http://www.w3.org/2000/svg"><g fill="#969faa"><path d="m52 56h10v6h-10z"/><path d="m32 56h10v6h-10z"/><path d="m12 56h10v6h-10z"/><path d="m2 46h10v6h-10z"/><path d="m22 46h10v6h-10z"/><path d="m42 46h10v6h-10z"/></g><path d="m42 56h10v6h-10z" fill="#ccd1d9"/><path d="m22 56h10v6h-10z" fill="#ccd1d9"/><path d="m2 56h10v6h-10z" fill="#ccd1d9"/><path d="m12 46h10v6h-10z" fill="#ccd1d9"/><path d="m32 46h10v6h-10z" fill="#ccd1d9"/><path d="m52 46h10v6h-10z" fill="#ccd1d9"/><path d="m62 52v4h-10-10-10-10-10-10v-4h10 10 10 10 10z" fill="#aab2bd"/><path d="m62 42v4h-10-10-10-10-10-10v-4h4 24 28z" fill="#aab2bd"/><path d="m45 2h-38c-.55 0-1 .45-1 1v39h24v-27c0-.55.45-1 1-1h7 8v-11c0-.55-.45-1-1-1z" fill="#d3a06c"/><path d="m18 2h16v8h-4-4-4-4z" fill="#fcd770"/><path d="m57 14h-26c-.55 0-1 .45-1 1v27h28v-27c0-.55-.45-1-1-1z" fill="#cf9e76"/><path d="m46 14h4v6h-4-4-4v-6z" fill="#b27946"/><path d="m59 41v-26c0-1.103-.897-2-2-2h-10v-10c0-1.103-.897-2-2-2h-38c-1.103 0-2 .897-2 2v38h-4v22h62v-22zm-2 0h-26v-26h6v6h14v-6h6zm-12-24v2h-2v-2h-2v2h-2v-4h10v4h-2v-2zm-16-12v4h-2v-4h-2v4h-2v-4h-2v4h-2v-6h14v6h-2v-4zm-22-2h10v8h18v-8h10v10h-14c-1.103 0-2 .897-2 2v26h-22zm54 40v2h-58v-2zm-40 14v4h-8v-4zm2 0h8v4h-8zm10 0h8v4h-8zm10 0h8v4h-8zm-40-2v-2h58v2zm40-4v-4h8v4zm-2 0h-8v-4h8zm-10 0h-8v-4h8zm-10 0h-8v-4h8zm-10 0h-8v-4h8zm42 0v-4h8v4zm-50 6h8v4h-8zm50 4v-4h8v4z"/><path d="m41 37h14v2h-14z"/><path d="m41 33h4v2h-4z"/><path d="m47 33h8v2h-8z"/></svg>