<svg id="Layer_5" enable-background="new 0 0 64 64" height="512" viewBox="0 0 64 64" width="512" xmlns="http://www.w3.org/2000/svg"><g><g><g><path d="m8 28h10v4h-10z" fill="#ccd1d9"/></g><g><path d="m46 28h10v4h-10z" fill="#ccd1d9"/></g><g><path d="m62 36v18c0 2.21-1.79 4-4 4h-2-10-28-10-2c-2.21 0-4-1.79-4-4v-18c0-2.21 1.79-4 4-4h2 10 28 10 2c2.21 0 4 1.79 4 4z" fill="#969faa"/></g><g><path d="m62 6v18c0 2.21-1.79 4-4 4h-2-10-28-10-2c-2.21 0-4-1.79-4-4v-18c0-2.21 1.79-4 4-4h52c2.21 0 4 1.79 4 4z" fill="#969faa"/></g><g><path d="m58 37v16c0 .55-.45 1-1 1h-50c-.55 0-1-.45-1-1v-16c0-.55.45-1 1-1h50c.55 0 1 .45 1 1z" fill="#69d6f4"/></g><g><path d="m58 7v16c0 .55-.45 1-1 1h-50c-.55 0-1-.45-1-1v-11h28v-6h23c.55 0 1 .45 1 1z" fill="#ccd1d9"/></g><g><path d="m56 58-1 4h-8l-1-4z" fill="#838f9b"/></g><g><path d="m54 11v4c0 .55-.45 1-1 1h-14c-.55 0-1-.45-1-1v-4c0-.55.45-1 1-1h14c.55 0 1 .45 1 1z" fill="#69d6f4"/></g><g><circle cx="50" cy="46" fill="#ff826e" r="4"/></g><g><path d="m35 46c-1.92 0-3.76.76-5.12 2.12l-1.88 1.88v-10h14v10l-1.88-1.88c-1.36-1.36-3.2-2.12-5.12-2.12z" fill="#e6e9ed"/></g><g><path d="m42 50h-14l1.88-1.88c1.36-1.36 3.2-2.12 5.12-2.12s3.76.76 5.12 2.12z" fill="#fcd770"/></g><g><path d="m34 6v6h-28v-5c0-.55.45-1 1-1z" fill="#e6e9ed"/></g><g><circle cx="28" cy="18" fill="#ff826e" r="2"/></g><g><path d="m17 46c-1.92 0-3.76.76-5.12 2.12l-1.88 1.88v-10h14v10l-1.88-1.88c-1.36-1.36-3.2-2.12-5.12-2.12z" fill="#e6e9ed"/></g><g><path d="m24 50h-14l1.88-1.88c1.36-1.36 3.2-2.12 5.12-2.12s3.76.76 5.12 2.12z" fill="#fcd770"/></g><g><circle cx="20" cy="18" fill="#ff826e" r="2"/></g><g><path d="m18 58-1 4h-8l-1-4z" fill="#838f9b"/></g><g><circle cx="12" cy="18" fill="#ff826e" r="2"/></g></g><g><path d="m5 37v16c0 1.103.897 2 2 2h50c1.103 0 2-.897 2-2v-16c0-1.103-.897-2-2-2h-50c-1.103 0-2 .897-2 2zm2 0h50v16h-50l-.001-16z"/><path d="m58 29c2.757 0 5-2.243 5-5v-18c0-2.757-2.243-5-5-5h-52c-2.757 0-5 2.243-5 5v18c0 2.757 2.243 5 5 5h1v2h-1c-2.757 0-5 2.243-5 5v18c0 2.757 2.243 5 5 5h1.219l1 4h9.562l1-4h26.438l1 4h9.562l1-4h1.219c2.757 0 5-2.243 5-5v-18c0-2.757-2.243-5-5-5h-1v-2zm-55-5v-18c0-1.654 1.346-3 3-3h52c1.654 0 3 1.346 3 3v18c0 1.654-1.346 3-3 3h-52c-1.654 0-3-1.346-3-3zm16 7v-2h26v2zm-10-2h8v2h-8zm7.219 32h-6.438l-.5-2h7.438zm38 0h-6.438l-.5-2h7.438zm6.781-25v18c0 1.654-1.346 3-3 3h-52c-1.654 0-3-1.346-3-3v-18c0-1.654 1.346-3 3-3h52c1.654 0 3 1.346 3 3zm-6-5h-8v-2h8z"/><path d="m59 23v-16c0-1.103-.897-2-2-2h-50c-1.103 0-2 .897-2 2v16c0 1.103.897 2 2 2h50c1.103 0 2-.897 2-2zm-52-16h26v4h-26.001v-4zm50 16h-50l-.001-10h28.001v-6h22z"/><path d="m25 39h-16v12h16zm-2 2v6.586l-.172-.172c-1.318-1.318-3.006-2.128-4.828-2.347v-2.067h-2v2.067c-1.822.219-3.51 1.029-4.828 2.347l-.172.172v-6.586zm-6 6c1.667 0 3.235.649 4.414 1.828l.172.172h-9.172l.172-.172c1.179-1.179 2.747-1.828 4.414-1.828z"/><path d="m43 39h-16v12h16zm-2 2v6.586l-.172-.172c-1.318-1.318-3.006-2.128-4.828-2.347v-2.067h-2v2.067c-1.822.219-3.51 1.029-4.828 2.347l-.172.172v-6.586zm-6 6c1.667 0 3.235.649 4.414 1.828l.172.172h-9.172l.172-.172c1.179-1.179 2.747-1.828 4.414-1.828z"/><path d="m50 51c2.757 0 5-2.243 5-5s-2.243-5-5-5-5 2.243-5 5 2.243 5 5 5zm0-8c1.654 0 3 1.346 3 3s-1.346 3-3 3-3-1.346-3-3 1.346-3 3-3z"/><path d="m12 15c-1.654 0-3 1.346-3 3s1.346 3 3 3 3-1.346 3-3-1.346-3-3-3zm0 4c-.551 0-1-.449-1-1s.449-1 1-1 1 .449 1 1-.449 1-1 1z"/><path d="m20 15c-1.654 0-3 1.346-3 3s1.346 3 3 3 3-1.346 3-3-1.346-3-3-3zm0 4c-.551 0-1-.449-1-1s.449-1 1-1 1 .449 1 1-.449 1-1 1z"/><path d="m28 15c-1.654 0-3 1.346-3 3s1.346 3 3 3 3-1.346 3-3-1.346-3-3-3zm0 4c-.551 0-1-.449-1-1s.449-1 1-1 1 .449 1 1-.449 1-1 1z"/><path d="m39 17h14c1.103 0 2-.897 2-2v-4c0-1.103-.897-2-2-2h-14c-1.103 0-2 .897-2 2v4c0 1.103.897 2 2 2zm0-6h14l.001 4h-14.001z"/><path d="m37 19h2v2h-2z"/><path d="m41 19h2v2h-2z"/><path d="m53 19h2v2h-2z"/><path d="m49 19h2v2h-2z"/><path d="m45 19h2v2h-2z"/></g></g></svg>