<?xml version="1.0" encoding="utf-8"?>
<!-- Svg Vector Icons : http://www.onlinewebfonts.com/icon -->
<!DOCTYPE svg PUBLIC "-//W3C//DTD SVG 1.1//EN" "http://www.w3.org/Graphics/SVG/1.1/DTD/svg11.dtd">
<svg version="1.1" xmlns="http://www.w3.org/2000/svg" xmlns:xlink="http://www.w3.org/1999/xlink" x="0px" y="0px" viewBox="0 0 1000 1000" enable-background="new 0 0 1000 1000" xml:space="preserve">
<metadata> Svg Vector Icons : http://www.onlinewebfonts.com/icon </metadata>
<g><path d="M962,218.8H38c-15.5,0-28-12.5-28-28s12.5-28,28-28h924c15.5,0,28,12.5,28,28S977.5,218.8,962,218.8z"/><path d="M803.4,969H196.6c-32.9,0-59.7-26.8-59.7-59.7l0-706.4c0-15.5,12.5-28,28-28c15.5,0,28,12.5,28,28v706.4c0,2,1.8,3.7,3.7,3.7h606.7c2,0,3.7-1.8,3.7-3.7V202.8c0-15.5,12.5-28,28-28c15.5,0,28,12.5,28,28v706.4C863.1,942.2,836.3,969,803.4,969z"/><path d="M351,813.3c-15.5,0-28-12.5-28-28V339.5c0-15.5,12.5-28,28-28c15.5,0,28,12.5,28,28v445.9C379,800.8,366.4,813.3,351,813.3z"/><path d="M500,813.3c-15.5,0-28-12.5-28-28V339.5c0-15.5,12.5-28,28-28s28,12.5,28,28v445.9C528,800.8,515.5,813.3,500,813.3z"/><path d="M649,813.3c-15.5,0-28-12.5-28-28V339.5c0-15.5,12.5-28,28-28s28,12.5,28,28v445.9C677,800.8,664.5,813.3,649,813.3z"/><path d="M647.2,201.4c-15.5,0-28-12.5-28-28V90.8c0-2-1.8-3.7-3.7-3.7h-231c-2,0-3.7,1.8-3.7,3.7v82.6c0,15.5-12.5,28-28,28c-15.5,0-28-12.5-28-28V90.8c0-32.9,26.8-59.7,59.7-59.7h231c32.9,0,59.7,26.8,59.7,59.7v82.6C675.2,188.9,662.7,201.4,647.2,201.4z"/></g>
</svg>