<svg id="Layer_35" enable-background="new 0 0 64 64" height="512" viewBox="0 0 64 64" width="512" xmlns="http://www.w3.org/2000/svg"><path d="m45 2h-26c-2.21 0-4 1.79-4 4v36h34v-36c0-2.21-1.79-4-4-4z" fill="#48cfad"/><path d="m45 30v10h-7c-1.1 0-2 .9-2 2h-8c0-1.1-.9-2-2-2h-7v-10z" fill="#fcd770"/><path d="m44 6h-24c-.55 0-1 .45-1 1v23h26v-23c0-.55-.45-1-1-1z" fill="#e6e9ed"/><path d="m62 54v2c0 1.1-.9 2-2 2h-7-8-7c-1.1 0-2-.9-2-2v-2z" fill="#ccd1d9"/><path d="m62 42v12h-26v-12c0-1.1.9-2 2-2h7 4 11c1.1 0 2 .9 2 2z" fill="#69d6f4"/><circle cx="60" cy="34" fill="#ff826e" r="2"/><circle cx="55" cy="13" fill="#ff826e" r="2"/><path d="m45 58h8v4h-8z" fill="#aab2bd"/><circle cx="32" cy="36" fill="#fc6e51" r="2"/><path d="m28 54v2c0 1.1-.9 2-2 2h-7-8-7c-1.1 0-2-.9-2-2v-2z" fill="#ccd1d9"/><path d="m28 42v12h-26v-12c0-1.1.9-2 2-2h11 4 7c1.1 0 2 .9 2 2z" fill="#69d6f4"/><path d="m11 58h8v4h-8z" fill="#aab2bd"/><circle cx="9" cy="34" fill="#ff826e" r="2"/><circle cx="4" cy="13" fill="#ff826e" r="2"/><path d="m60 39h-10v-33c0-2.757-2.243-5-5-5h-26c-2.757 0-5 2.243-5 5v33h-10c-1.654 0-3 1.346-3 3v14c0 1.654 1.346 3 3 3h6v2h-4v2h18v-2h-4v-2h6c1.654 0 3-1.346 3-3v-13h6v13c0 1.654 1.346 3 3 3h6v2h-4v2h18v-2h-4v-2h6c1.654 0 3-1.346 3-3v-14c0-1.654-1.346-3-3-3zm1 3v11h-24v-11c0-.551.448-1 1-1h22c.552 0 1 .449 1 1zm-35-3h-6v-8h24v8h-6c-1.302 0-2.402.839-2.816 2h-6.369c-.413-1.161-1.513-2-2.815-2zm18-26h-24v-6h24zm-24 2h24v6h-24zm0 8h24v6h-24zm-4-17c0-1.654 1.346-3 3-3h26c1.654 0 3 1.346 3 3v33h-2v-32c0-1.103-.897-2-2-2h-24c-1.103 0-2 .897-2 2v32h-2zm-12 35h22c.552 0 1 .449 1 1v11h-24v-11c0-.551.448-1 1-1zm14 20h-6v-2h6zm8-4h-22c-.552 0-1-.449-1-1v-1h24v1c0 .551-.448 1-1 1zm26 4h-6v-2h6zm8-4h-22c-.552 0-1-.449-1-1v-1h24v1c0 .551-.448 1-1 1z"/><path d="m22 9h2v2h-2z"/><path d="m26 9h2v2h-2z"/><path d="m30 9h2v2h-2z"/><path d="m40 17h2v2h-2z"/><path d="m36 17h2v2h-2z"/><path d="m32 17h2v2h-2z"/><path d="m22 25h2v2h-2z"/><path d="m26 25h2v2h-2z"/><path d="m30 25h2v2h-2z"/><path d="m32 33c-1.654 0-3 1.346-3 3s1.346 3 3 3 3-1.346 3-3-1.346-3-3-3zm0 4c-.552 0-1-.449-1-1s.448-1 1-1 1 .449 1 1-.448 1-1 1z"/><path d="m54 15.816v21.184h2v-21.184c1.161-.414 2-1.514 2-2.816 0-1.654-1.346-3-3-3s-3 1.346-3 3c0 1.302.839 2.402 2 2.816zm1-3.816c.552 0 1 .449 1 1s-.448 1-1 1-1-.449-1-1 .448-1 1-1z"/><path d="m57 34c0 1.654 1.346 3 3 3s3-1.346 3-3c0-1.302-.839-2.402-2-2.816v-21.184h-2v21.184c-1.161.414-2 1.514-2 2.816zm3 1c-.552 0-1-.449-1-1s.448-1 1-1 1 .449 1 1-.448 1-1 1z"/><path d="m3 15.816v21.184h2v-21.184c1.161-.414 2-1.514 2-2.816 0-1.654-1.346-3-3-3s-3 1.346-3 3c0 1.302.839 2.402 2 2.816zm1-3.816c.552 0 1 .449 1 1s-.448 1-1 1-1-.449-1-1 .448-1 1-1z"/><path d="m6 34c0 1.654 1.346 3 3 3s3-1.346 3-3c0-1.302-.839-2.402-2-2.816v-21.184h-2v21.184c-1.161.414-2 1.514-2 2.816zm3 1c-.552 0-1-.449-1-1s.448-1 1-1 1 .449 1 1-.448 1-1 1z"/><path d="m39 43h2v2h-2z"/><path d="m43 43h2v2h-2z"/><path d="m47 43h2v2h-2z"/><path d="m23 49h2v2h-2z"/><path d="m19 49h2v2h-2z"/><path d="m15 49h2v2h-2z"/></svg>