<svg id="Layer_3" enable-background="new 0 0 64 64" height="512" viewBox="0 0 64 64" width="512" xmlns="http://www.w3.org/2000/svg"><path d="m58 41v4c0 1.1-.9 2-2 2h-48c-1.1 0-2-.9-2-2v-4c0-1.1.9-2 2-2h48c1.1 0 2 .9 2 2z" fill="#b4dd7f"/><path d="m58 19v4c0 1.1-.9 2-2 2h-48c-1.1 0-2-.9-2-2v-4c0-1.1.9-2 2-2h48c1.1 0 2 .9 2 2z" fill="#b4dd7f"/><g fill="#fcd770"><path d="m56 17h-48-2c-2.21 0-4-1.79-4-4v-6c0-2.21 1.79-4 4-4h52c2.21 0 4 1.79 4 4v6c0 2.21-1.79 4-4 4z"/><path d="m56 39h-48-2c-2.21 0-4-1.79-4-4v-6c0-2.21 1.79-4 4-4h2 48 2c2.21 0 4 1.79 4 4v6c0 2.21-1.79 4-4 4z"/><path d="m62 51v6c0 2.21-1.79 4-4 4h-52c-2.21 0-4-1.79-4-4v-6c0-2.21 1.79-4 4-4h2 48 2c2.21 0 4 1.79 4 4z"/></g><circle cx="55" cy="54" fill="#e6e9ed" r="3"/><circle cx="8" cy="32" fill="#e6e9ed" r="3"/><circle cx="55" cy="10" fill="#e6e9ed" r="3"/><path d="m63 13v-6c0-2.757-2.243-5-5-5h-52c-2.757 0-5 2.243-5 5v6c0 2.486 1.829 4.538 4.209 4.92-.13.336-.209.698-.209 1.08v4c0 .382.079.744.209 1.08-2.38.382-4.209 2.434-4.209 4.92v6c0 2.486 1.829 4.538 4.209 4.92-.13.336-.209.698-.209 1.08v4c0 .382.079.744.209 1.08-2.38.382-4.209 2.434-4.209 4.92v6c0 2.757 2.243 5 5 5h52c2.757 0 5-2.243 5-5v-6c0-2.486-1.829-4.538-4.209-4.92.13-.336.209-.698.209-1.08v-4c0-.382-.079-.744-.209-1.08 2.38-.382 4.209-2.434 4.209-4.92v-6c0-2.486-1.829-4.538-4.209-4.92.13-.336.209-.698.209-1.08v-4c0-.382-.079-.744-.209-1.08 2.38-.382 4.209-2.434 4.209-4.92zm-6 6v4c0 .551-.449 1-1 1h-48c-.551 0-1-.449-1-1v-4c0-.551.449-1 1-1h48c.551 0 1 .449 1 1zm0 22v4c0 .551-.449 1-1 1h-48c-.551 0-1-.449-1-1v-4c0-.551.449-1 1-1h48c.551 0 1 .449 1 1zm4 10v6c0 1.654-1.346 3-3 3h-52c-1.654 0-3-1.346-3-3v-6c0-1.654 1.346-3 3-3h2 48 2c1.654 0 3 1.346 3 3zm0-22v6c0 1.654-1.346 3-3 3h-2-48-2c-1.654 0-3-1.346-3-3v-6c0-1.654 1.346-3 3-3h2 48 2c1.654 0 3 1.346 3 3zm0-16c0 1.654-1.346 3-3 3h-2-48-2c-1.654 0-3-1.346-3-3v-6c0-1.654 1.346-3 3-3h52c1.654 0 3 1.346 3 3z"/><path d="m32 34h2v2h-2z"/><path d="m57 34h-21v2h21c1.103 0 2-.897 2-2v-2h-2z"/><path d="m5 6h2v2h-2z"/><path d="m9 6h2v2h-2z"/><path d="m13 6h2v2h-2z"/><path d="m55 6c-2.206 0-4 1.794-4 4s1.794 4 4 4 4-1.794 4-4-1.794-4-4-4zm0 6c-1.103 0-2-.897-2-2s.897-2 2-2 2 .897 2 2-.897 2-2 2z"/><path d="m5 50h2v2h-2z"/><path d="m9 50h2v2h-2z"/><path d="m13 50h2v2h-2z"/><path d="m55 50c-2.206 0-4 1.794-4 4s1.794 4 4 4 4-1.794 4-4-1.794-4-4-4zm0 6c-1.103 0-2-.897-2-2s.897-2 2-2 2 .897 2 2-.897 2-2 2z"/><path d="m56 28h2v2h-2z"/><path d="m52 28h2v2h-2z"/><path d="m48 28h2v2h-2z"/><path d="m8 28c-2.206 0-4 1.794-4 4s1.794 4 4 4 4-1.794 4-4-1.794-4-4-4zm0 6c-1.103 0-2-.897-2-2s.897-2 2-2 2 .897 2 2-.897 2-2 2z"/><path d="m30 12h2v2h-2z"/><path d="m7 10h-2v2c0 1.103.897 2 2 2h21v-2h-21z"/><path d="m34 12h2v2h-2z"/></svg>