<?xml version="1.0" encoding="utf-8"?>
<!-- Generator: Adobe Illustrator 19.0.0, SVG Export Plug-In . SVG Version: 6.00 Build 0)  -->
<svg version="1.1" id="Layer_1" xmlns="http://www.w3.org/2000/svg" xmlns:xlink="http://www.w3.org/1999/xlink" x="0px" y="0px"
	 viewBox="0 0 512 512" style="enable-background:new 0 0 512 512;" xml:space="preserve">
<g id="XMLID_2_">
	<path id="XMLID_14_" d="M157.3,423.6v-58.6c0-2.8-0.9-5.6-2.8-7.4c-1.9-1.9-4.7-2.8-7.4-2.8H49.3c-2.8,0-5.6,0.9-7.4,2.8
		c-1.9,1.9-2.8,4.7-2.8,7.4v58.6c0,2.8,0.9,5.6,2.8,7.4c1.9,1.9,4.7,2.8,7.4,2.8H148c2.8,0,5.6-0.9,7.4-2.8
		C156.4,428.2,157.3,426.4,157.3,423.6z M157.3,305.3v-58.6c0-2.8-0.9-5.6-2.8-7.4c-1.9-1.9-4.7-2.8-7.4-2.8H49.3
		c-2.8,0-5.6,0.9-7.4,2.8c-1.9,1.9-2.8,4.7-2.8,7.4v58.6c0,2.8,0.9,5.6,2.8,7.4c1.9,1.9,4.7,2.8,7.4,2.8H148c2.8,0,5.6-0.9,7.4-2.8
		C156.4,310.9,157.3,308.1,157.3,305.3z M314.6,423.6v-58.6c0-2.8-0.9-5.6-2.8-7.4c-1.9-1.9-4.7-2.8-7.4-2.8h-97.7
		c-2.8,0-5.6,0.9-7.4,2.8c-1.9,1.9-2.8,4.7-2.8,7.4v58.6c0,2.8,0.9,5.6,2.8,7.4c1.9,1.9,4.7,2.8,7.4,2.8h98.7c2.8,0,5.6-0.9,7.4-2.8
		C313.7,428.2,314.6,426.4,314.6,423.6z M157.3,187.1v-58.6c0-2.8-0.9-5.6-2.8-7.4c-1.9-1.9-4.7-2.8-7.4-2.8H49.3
		c-2.8,0-5.6,0.9-7.4,2.8c-1.9,1.9-2.8,4.7-2.8,7.4v58.6c0,2.8,0.9,5.6,2.8,7.4c1.9,1.9,4.7,2.8,7.4,2.8H148c2.8,0,5.6-0.9,7.4-2.8
		C156.4,192.7,157.3,189.9,157.3,187.1z M314.6,305.3v-58.6c0-2.8-0.9-5.6-2.8-7.4c-1.9-1.9-4.7-2.8-7.4-2.8h-97.7
		c-2.8,0-5.6,0.9-7.4,2.8c-1.9,1.9-2.8,4.7-2.8,7.4v58.6c0,2.8,0.9,5.6,2.8,7.4c1.9,1.9,4.7,2.8,7.4,2.8h98.7c2.8,0,5.6-0.9,7.4-2.8
		C313.7,310.9,314.6,308.1,314.6,305.3z M472.9,423.6v-58.6c0-2.8-0.9-5.6-2.8-7.4c-1.9-1.9-4.7-2.8-7.4-2.8H364
		c-2.8,0-5.6,0.9-7.4,2.8c-1.9,1.9-2.8,4.7-2.8,7.4v58.6c0,2.8,0.9,5.6,2.8,7.4c1.9,1.9,4.7,2.8,7.4,2.8h98.7c2.8,0,5.6-0.9,7.4-2.8
		C472,428.2,472.9,426.4,472.9,423.6z M314.6,187.1v-58.6c0-2.8-0.9-5.6-2.8-7.4s-4.7-2.8-7.4-2.8h-97.7c-2.8,0-5.6,0.9-7.4,2.8
		c-1.9,1.9-2.8,4.7-2.8,7.4v58.6c0,2.8,0.9,5.6,2.8,7.4c1.9,1.9,4.7,2.8,7.4,2.8h98.7c2.8,0,5.6-0.9,7.4-2.8
		C313.7,192.7,314.6,189.9,314.6,187.1z M472.9,305.3v-58.6c0-2.8-0.9-5.6-2.8-7.4c-1.9-1.9-4.7-2.8-7.4-2.8H364
		c-2.8,0-5.6,0.9-7.4,2.8c-1.9,1.9-2.8,4.7-2.8,7.4v58.6c0,2.8,0.9,5.6,2.8,7.4s4.7,2.8,7.4,2.8h98.7c2.8,0,5.6-0.9,7.4-2.8
		C472,310.9,472.9,308.1,472.9,305.3z M472.9,187.1v-58.6c0-2.8-0.9-5.6-2.8-7.4c-1.9-1.9-4.7-2.8-7.4-2.8H364
		c-2.8,0-5.6,0.9-7.4,2.8s-2.8,4.7-2.8,7.4v58.6c0,2.8,0.9,5.6,2.8,7.4c1.9,1.9,4.7,2.8,7.4,2.8h98.7c2.8,0,5.6-0.9,7.4-2.8
		C472,192.7,472.9,189.9,472.9,187.1z M512,88.4v335.1c0,14-4.7,25.1-14.9,34.4c-9.3,9.3-21.4,14.9-34.4,14.9H49.3
		c-14,0-25.1-4.7-34.4-14.9C5.6,448.7,0,436.6,0,423.6V88.4c0-14,4.7-25.1,14.9-34.4c9.3-9.3,21.4-14.9,34.4-14.9h413.3
		c14,0,25.1,4.7,34.4,14.9C507.3,63.3,512,75.4,512,88.4z"/>
</g>
</svg>
